<mxfile host="app.diagrams.net" modified="2023-12-04T17:46:59.390Z" agent="Mozilla/5.0 (Windows NT 10.0; Win64; x64) AppleWebKit/537.36 (KHTML, like Gecko) Chrome/119.0.0.0 Safari/537.36" etag="qIroTEvARyjgb8NDJ-r0" version="22.1.5" type="device">
  <diagram name="Page-1" id="NmqvnIhQLFibBkFak7Yv">
    <mxGraphModel dx="1909" dy="949" grid="1" gridSize="10" guides="1" tooltips="1" connect="1" arrows="1" fold="1" page="1" pageScale="1" pageWidth="700" pageHeight="600" math="0" shadow="0">
      <root>
        <mxCell id="0" />
        <mxCell id="1" parent="0" />
        <mxCell id="NQoOeGraaNY6f-ezMxtP-30" value="" style="group" vertex="1" connectable="0" parent="1">
          <mxGeometry x="20" y="70" width="464.36" height="177.02702702702703" as="geometry" />
        </mxCell>
        <mxCell id="NQoOeGraaNY6f-ezMxtP-28" value="" style="group" vertex="1" connectable="0" parent="NQoOeGraaNY6f-ezMxtP-30">
          <mxGeometry x="170" width="294.36" height="177.02702702702703" as="geometry" />
        </mxCell>
        <mxCell id="NQoOeGraaNY6f-ezMxtP-24" value="" style="group" vertex="1" connectable="0" parent="NQoOeGraaNY6f-ezMxtP-28">
          <mxGeometry x="14.358974358974358" width="251.28205128205127" height="177.02702702702703" as="geometry" />
        </mxCell>
        <mxCell id="NQoOeGraaNY6f-ezMxtP-6" value="" style="endArrow=none;html=1;rounded=0;" edge="1" parent="NQoOeGraaNY6f-ezMxtP-24">
          <mxGeometry width="50" height="50" relative="1" as="geometry">
            <mxPoint x="165.1282051282051" y="85.76576576576578" as="sourcePoint" />
            <mxPoint x="129.23076923076923" y="39.81981981981982" as="targetPoint" />
          </mxGeometry>
        </mxCell>
        <mxCell id="NQoOeGraaNY6f-ezMxtP-7" value="" style="endArrow=none;html=1;rounded=0;" edge="1" parent="NQoOeGraaNY6f-ezMxtP-24">
          <mxGeometry width="50" height="50" relative="1" as="geometry">
            <mxPoint x="165.1282051282051" y="85.76576576576578" as="sourcePoint" />
            <mxPoint x="215.3846153846154" y="85.76576576576578" as="targetPoint" />
          </mxGeometry>
        </mxCell>
        <mxCell id="NQoOeGraaNY6f-ezMxtP-8" value="" style="endArrow=none;html=1;rounded=0;" edge="1" parent="NQoOeGraaNY6f-ezMxtP-24">
          <mxGeometry width="50" height="50" relative="1" as="geometry">
            <mxPoint x="215.3846153846154" y="85.76576576576578" as="sourcePoint" />
            <mxPoint x="229.74358974358975" y="55.13513513513514" as="targetPoint" />
          </mxGeometry>
        </mxCell>
        <mxCell id="NQoOeGraaNY6f-ezMxtP-9" value="" style="endArrow=none;html=1;rounded=0;" edge="1" parent="NQoOeGraaNY6f-ezMxtP-24">
          <mxGeometry width="50" height="50" relative="1" as="geometry">
            <mxPoint x="215.3846153846154" y="85.76576576576578" as="sourcePoint" />
            <mxPoint x="229.74358974358975" y="116.3963963963964" as="targetPoint" />
          </mxGeometry>
        </mxCell>
        <mxCell id="NQoOeGraaNY6f-ezMxtP-10" value="" style="endArrow=none;html=1;rounded=0;" edge="1" parent="NQoOeGraaNY6f-ezMxtP-24">
          <mxGeometry width="50" height="50" relative="1" as="geometry">
            <mxPoint x="222.56410256410257" y="70.45045045045046" as="sourcePoint" />
            <mxPoint x="236.92307692307693" y="70.45045045045046" as="targetPoint" />
          </mxGeometry>
        </mxCell>
        <mxCell id="NQoOeGraaNY6f-ezMxtP-11" value="" style="endArrow=none;html=1;rounded=0;" edge="1" parent="NQoOeGraaNY6f-ezMxtP-24">
          <mxGeometry width="50" height="50" relative="1" as="geometry">
            <mxPoint x="143.5897435897436" y="116.3963963963964" as="sourcePoint" />
            <mxPoint x="165.1282051282051" y="85.76576576576578" as="targetPoint" />
          </mxGeometry>
        </mxCell>
        <mxCell id="NQoOeGraaNY6f-ezMxtP-19" value="B" style="text;html=1;align=center;verticalAlign=middle;resizable=0;points=[];autosize=1;strokeColor=none;fillColor=none;" vertex="1" parent="NQoOeGraaNY6f-ezMxtP-24">
          <mxGeometry x="136.4102564102564" width="30" height="30" as="geometry" />
        </mxCell>
        <mxCell id="NQoOeGraaNY6f-ezMxtP-20" value="G" style="text;html=1;align=center;verticalAlign=middle;resizable=0;points=[];autosize=1;strokeColor=none;fillColor=none;" vertex="1" parent="NQoOeGraaNY6f-ezMxtP-24">
          <mxGeometry x="222.56410256410257" y="39.81981981981982" width="30" height="30" as="geometry" />
        </mxCell>
        <mxCell id="NQoOeGraaNY6f-ezMxtP-21" value="F" style="text;html=1;align=center;verticalAlign=middle;resizable=0;points=[];autosize=1;strokeColor=none;fillColor=none;" vertex="1" parent="NQoOeGraaNY6f-ezMxtP-24">
          <mxGeometry x="229.74358974358975" y="58.96396396396397" width="30" height="30" as="geometry" />
        </mxCell>
        <mxCell id="NQoOeGraaNY6f-ezMxtP-22" value="D" style="text;html=1;align=center;verticalAlign=middle;resizable=0;points=[];autosize=1;strokeColor=none;fillColor=none;" vertex="1" parent="NQoOeGraaNY6f-ezMxtP-24">
          <mxGeometry x="129.23076923076923" y="108.73873873873875" width="30" height="30" as="geometry" />
        </mxCell>
        <mxCell id="NQoOeGraaNY6f-ezMxtP-23" value="E" style="text;html=1;align=center;verticalAlign=middle;resizable=0;points=[];autosize=1;strokeColor=none;fillColor=none;" vertex="1" parent="NQoOeGraaNY6f-ezMxtP-24">
          <mxGeometry x="222.56410256410257" y="108.73873873873875" width="30" height="30" as="geometry" />
        </mxCell>
        <mxCell id="NQoOeGraaNY6f-ezMxtP-31" value="" style="group" vertex="1" connectable="0" parent="NQoOeGraaNY6f-ezMxtP-24">
          <mxGeometry width="143.5897435897436" height="177.02702702702703" as="geometry" />
        </mxCell>
        <mxCell id="NQoOeGraaNY6f-ezMxtP-1" value="" style="endArrow=none;html=1;rounded=0;" edge="1" parent="NQoOeGraaNY6f-ezMxtP-31">
          <mxGeometry width="50" height="50" relative="1" as="geometry">
            <mxPoint x="64.61538461538461" y="16.846846846846848" as="sourcePoint" />
            <mxPoint x="86.15384615384616" y="39.81981981981982" as="targetPoint" />
          </mxGeometry>
        </mxCell>
        <mxCell id="NQoOeGraaNY6f-ezMxtP-2" value="" style="endArrow=none;html=1;rounded=0;" edge="1" parent="NQoOeGraaNY6f-ezMxtP-31">
          <mxGeometry width="50" height="50" relative="1" as="geometry">
            <mxPoint x="86.15384615384616" y="39.81981981981982" as="sourcePoint" />
            <mxPoint x="129.23076923076923" y="39.81981981981982" as="targetPoint" />
          </mxGeometry>
        </mxCell>
        <mxCell id="NQoOeGraaNY6f-ezMxtP-3" value="" style="endArrow=none;html=1;rounded=0;" edge="1" parent="NQoOeGraaNY6f-ezMxtP-31">
          <mxGeometry width="50" height="50" relative="1" as="geometry">
            <mxPoint x="86.15384615384616" y="124.05405405405405" as="sourcePoint" />
            <mxPoint x="57.43589743589744" y="85.76576576576578" as="targetPoint" />
          </mxGeometry>
        </mxCell>
        <mxCell id="NQoOeGraaNY6f-ezMxtP-4" value="" style="endArrow=none;html=1;rounded=0;" edge="1" parent="NQoOeGraaNY6f-ezMxtP-31">
          <mxGeometry width="50" height="50" relative="1" as="geometry">
            <mxPoint x="28.71794871794872" y="131.7117117117117" as="sourcePoint" />
            <mxPoint x="43.07692307692308" y="154.6846846846847" as="targetPoint" />
          </mxGeometry>
        </mxCell>
        <mxCell id="NQoOeGraaNY6f-ezMxtP-5" value="" style="endArrow=none;html=1;rounded=0;" edge="1" parent="NQoOeGraaNY6f-ezMxtP-31">
          <mxGeometry width="50" height="50" relative="1" as="geometry">
            <mxPoint x="14.35897435897436" y="154.6846846846847" as="sourcePoint" />
            <mxPoint x="86.15384615384616" y="39.81981981981982" as="targetPoint" />
          </mxGeometry>
        </mxCell>
        <mxCell id="NQoOeGraaNY6f-ezMxtP-12" value="" style="endArrow=none;html=1;rounded=0;" edge="1" parent="NQoOeGraaNY6f-ezMxtP-31">
          <mxGeometry width="50" height="50" relative="1" as="geometry">
            <mxPoint x="129.23076923076923" y="39.81981981981982" as="sourcePoint" />
            <mxPoint x="143.5897435897436" y="16.846846846846848" as="targetPoint" />
          </mxGeometry>
        </mxCell>
        <mxCell id="NQoOeGraaNY6f-ezMxtP-13" value="" style="endArrow=none;html=1;rounded=0;" edge="1" parent="NQoOeGraaNY6f-ezMxtP-31">
          <mxGeometry width="50" height="50" relative="1" as="geometry">
            <mxPoint x="114.87179487179488" y="62.7927927927928" as="sourcePoint" />
            <mxPoint x="134.97435897435898" y="47.47747747747748" as="targetPoint" />
          </mxGeometry>
        </mxCell>
        <mxCell id="NQoOeGraaNY6f-ezMxtP-14" value="A" style="text;html=1;align=center;verticalAlign=middle;resizable=0;points=[];autosize=1;strokeColor=none;fillColor=none;" vertex="1" parent="NQoOeGraaNY6f-ezMxtP-31">
          <mxGeometry x="50.256410256410255" width="30" height="30" as="geometry" />
        </mxCell>
        <mxCell id="NQoOeGraaNY6f-ezMxtP-15" value="H" style="text;html=1;align=center;verticalAlign=middle;resizable=0;points=[];autosize=1;strokeColor=none;fillColor=none;" vertex="1" parent="NQoOeGraaNY6f-ezMxtP-31">
          <mxGeometry x="78.97435897435898" y="116.3963963963964" width="30" height="30" as="geometry" />
        </mxCell>
        <mxCell id="NQoOeGraaNY6f-ezMxtP-16" value="I" style="text;html=1;align=center;verticalAlign=middle;resizable=0;points=[];autosize=1;strokeColor=none;fillColor=none;" vertex="1" parent="NQoOeGraaNY6f-ezMxtP-31">
          <mxGeometry x="35.8974358974359" y="147.02702702702703" width="30" height="30" as="geometry" />
        </mxCell>
        <mxCell id="NQoOeGraaNY6f-ezMxtP-17" value="J" style="text;html=1;align=center;verticalAlign=middle;resizable=0;points=[];autosize=1;strokeColor=none;fillColor=none;" vertex="1" parent="NQoOeGraaNY6f-ezMxtP-31">
          <mxGeometry y="147.02702702702703" width="30" height="30" as="geometry" />
        </mxCell>
        <mxCell id="NQoOeGraaNY6f-ezMxtP-18" value="C" style="text;html=1;align=center;verticalAlign=middle;resizable=0;points=[];autosize=1;strokeColor=none;fillColor=none;" vertex="1" parent="NQoOeGraaNY6f-ezMxtP-31">
          <mxGeometry x="100.51282051282051" y="55.13513513513514" width="30" height="30" as="geometry" />
        </mxCell>
        <mxCell id="NQoOeGraaNY6f-ezMxtP-25" value="" style="shape=curlyBracket;whiteSpace=wrap;html=1;rounded=1;labelPosition=left;verticalLabelPosition=middle;align=right;verticalAlign=middle;strokeWidth=3;" vertex="1" parent="NQoOeGraaNY6f-ezMxtP-28">
          <mxGeometry x="-10" width="24.36" height="168.47" as="geometry" />
        </mxCell>
        <mxCell id="NQoOeGraaNY6f-ezMxtP-71" value="" style="shape=curlyBracket;whiteSpace=wrap;html=1;rounded=1;flipH=1;labelPosition=right;verticalLabelPosition=middle;align=left;verticalAlign=middle;strokeWidth=3;" vertex="1" parent="NQoOeGraaNY6f-ezMxtP-28">
          <mxGeometry x="270" y="-0.7600000000000051" width="24.36" height="169.23" as="geometry" />
        </mxCell>
        <mxCell id="NQoOeGraaNY6f-ezMxtP-29" value="&lt;b&gt;&lt;font style=&quot;font-size: 86px;&quot;&gt;V&lt;/font&gt;&lt;/b&gt;" style="text;html=1;align=center;verticalAlign=middle;resizable=0;points=[];autosize=1;strokeColor=none;fillColor=none;" vertex="1" parent="NQoOeGraaNY6f-ezMxtP-30">
          <mxGeometry x="-10" y="24.23" width="80" height="120" as="geometry" />
        </mxCell>
        <mxCell id="NQoOeGraaNY6f-ezMxtP-69" value="" style="shape=curlyBracket;whiteSpace=wrap;html=1;rounded=1;labelPosition=left;verticalLabelPosition=middle;align=right;verticalAlign=middle;strokeWidth=3;" vertex="1" parent="NQoOeGraaNY6f-ezMxtP-30">
          <mxGeometry x="60" y="-3.9968028886505635e-15" width="24.36" height="168.47" as="geometry" />
        </mxCell>
        <mxCell id="NQoOeGraaNY6f-ezMxtP-72" value="&lt;b&gt;&lt;font style=&quot;font-size: 86px;&quot;&gt;f&lt;/font&gt;&lt;/b&gt;" style="text;html=1;align=center;verticalAlign=middle;resizable=0;points=[];autosize=1;strokeColor=none;fillColor=none;" vertex="1" parent="NQoOeGraaNY6f-ezMxtP-30">
          <mxGeometry x="99.36" y="24.230000000000004" width="50" height="120" as="geometry" />
        </mxCell>
        <mxCell id="NQoOeGraaNY6f-ezMxtP-32" value="" style="shape=flexArrow;endArrow=classic;html=1;rounded=0;" edge="1" parent="1">
          <mxGeometry width="50" height="50" relative="1" as="geometry">
            <mxPoint x="530" y="158.1" as="sourcePoint" />
            <mxPoint x="590" y="158.1" as="targetPoint" />
          </mxGeometry>
        </mxCell>
        <mxCell id="NQoOeGraaNY6f-ezMxtP-33" value="&lt;font style=&quot;font-size: 50px;&quot;&gt;0.7&lt;/font&gt;" style="text;html=1;align=center;verticalAlign=middle;resizable=0;points=[];autosize=1;strokeColor=none;fillColor=none;" vertex="1" parent="1">
          <mxGeometry x="610" y="123.51" width="90" height="70" as="geometry" />
        </mxCell>
        <mxCell id="NQoOeGraaNY6f-ezMxtP-35" value="" style="group" vertex="1" connectable="0" parent="1">
          <mxGeometry x="10" y="330" width="370" height="177.02702702702703" as="geometry" />
        </mxCell>
        <mxCell id="NQoOeGraaNY6f-ezMxtP-36" value="" style="group" vertex="1" connectable="0" parent="NQoOeGraaNY6f-ezMxtP-35">
          <mxGeometry x="80" width="290" height="177.02702702702703" as="geometry" />
        </mxCell>
        <mxCell id="NQoOeGraaNY6f-ezMxtP-37" value="" style="group" vertex="1" connectable="0" parent="NQoOeGraaNY6f-ezMxtP-36">
          <mxGeometry x="14.358974358974358" width="251.28205128205127" height="177.02702702702703" as="geometry" />
        </mxCell>
        <mxCell id="NQoOeGraaNY6f-ezMxtP-38" value="" style="endArrow=none;html=1;rounded=0;" edge="1" parent="NQoOeGraaNY6f-ezMxtP-37">
          <mxGeometry width="50" height="50" relative="1" as="geometry">
            <mxPoint x="165.1282051282051" y="85.76576576576578" as="sourcePoint" />
            <mxPoint x="129.23076923076923" y="39.81981981981982" as="targetPoint" />
          </mxGeometry>
        </mxCell>
        <mxCell id="NQoOeGraaNY6f-ezMxtP-39" value="" style="endArrow=none;html=1;rounded=0;" edge="1" parent="NQoOeGraaNY6f-ezMxtP-37">
          <mxGeometry width="50" height="50" relative="1" as="geometry">
            <mxPoint x="165.1282051282051" y="85.76576576576578" as="sourcePoint" />
            <mxPoint x="215.3846153846154" y="85.76576576576578" as="targetPoint" />
          </mxGeometry>
        </mxCell>
        <mxCell id="NQoOeGraaNY6f-ezMxtP-40" value="" style="endArrow=none;html=1;rounded=0;" edge="1" parent="NQoOeGraaNY6f-ezMxtP-37">
          <mxGeometry width="50" height="50" relative="1" as="geometry">
            <mxPoint x="215.3846153846154" y="85.76576576576578" as="sourcePoint" />
            <mxPoint x="229.74358974358975" y="55.13513513513514" as="targetPoint" />
          </mxGeometry>
        </mxCell>
        <mxCell id="NQoOeGraaNY6f-ezMxtP-41" value="" style="endArrow=none;html=1;rounded=0;" edge="1" parent="NQoOeGraaNY6f-ezMxtP-37">
          <mxGeometry width="50" height="50" relative="1" as="geometry">
            <mxPoint x="215.3846153846154" y="85.76576576576578" as="sourcePoint" />
            <mxPoint x="229.74358974358975" y="116.3963963963964" as="targetPoint" />
          </mxGeometry>
        </mxCell>
        <mxCell id="NQoOeGraaNY6f-ezMxtP-42" value="" style="endArrow=none;html=1;rounded=0;" edge="1" parent="NQoOeGraaNY6f-ezMxtP-37">
          <mxGeometry width="50" height="50" relative="1" as="geometry">
            <mxPoint x="222.56410256410257" y="70.45045045045046" as="sourcePoint" />
            <mxPoint x="236.92307692307693" y="70.45045045045046" as="targetPoint" />
          </mxGeometry>
        </mxCell>
        <mxCell id="NQoOeGraaNY6f-ezMxtP-43" value="" style="endArrow=none;html=1;rounded=0;" edge="1" parent="NQoOeGraaNY6f-ezMxtP-37">
          <mxGeometry width="50" height="50" relative="1" as="geometry">
            <mxPoint x="143.5897435897436" y="116.3963963963964" as="sourcePoint" />
            <mxPoint x="165.1282051282051" y="85.76576576576578" as="targetPoint" />
          </mxGeometry>
        </mxCell>
        <mxCell id="NQoOeGraaNY6f-ezMxtP-44" value="B" style="text;html=1;align=center;verticalAlign=middle;resizable=0;points=[];autosize=1;strokeColor=none;fillColor=none;" vertex="1" parent="NQoOeGraaNY6f-ezMxtP-37">
          <mxGeometry x="136.4102564102564" width="30" height="30" as="geometry" />
        </mxCell>
        <mxCell id="NQoOeGraaNY6f-ezMxtP-45" value="G" style="text;html=1;align=center;verticalAlign=middle;resizable=0;points=[];autosize=1;strokeColor=none;fillColor=none;" vertex="1" parent="NQoOeGraaNY6f-ezMxtP-37">
          <mxGeometry x="222.56410256410257" y="39.81981981981982" width="30" height="30" as="geometry" />
        </mxCell>
        <mxCell id="NQoOeGraaNY6f-ezMxtP-46" value="F" style="text;html=1;align=center;verticalAlign=middle;resizable=0;points=[];autosize=1;strokeColor=none;fillColor=none;" vertex="1" parent="NQoOeGraaNY6f-ezMxtP-37">
          <mxGeometry x="229.74358974358975" y="58.96396396396397" width="30" height="30" as="geometry" />
        </mxCell>
        <mxCell id="NQoOeGraaNY6f-ezMxtP-47" value="D" style="text;html=1;align=center;verticalAlign=middle;resizable=0;points=[];autosize=1;strokeColor=none;fillColor=none;" vertex="1" parent="NQoOeGraaNY6f-ezMxtP-37">
          <mxGeometry x="129.23076923076923" y="108.73873873873875" width="30" height="30" as="geometry" />
        </mxCell>
        <mxCell id="NQoOeGraaNY6f-ezMxtP-48" value="E" style="text;html=1;align=center;verticalAlign=middle;resizable=0;points=[];autosize=1;strokeColor=none;fillColor=none;" vertex="1" parent="NQoOeGraaNY6f-ezMxtP-37">
          <mxGeometry x="222.56410256410257" y="108.73873873873875" width="30" height="30" as="geometry" />
        </mxCell>
        <mxCell id="NQoOeGraaNY6f-ezMxtP-49" value="" style="group" vertex="1" connectable="0" parent="NQoOeGraaNY6f-ezMxtP-37">
          <mxGeometry width="143.5897435897436" height="177.02702702702703" as="geometry" />
        </mxCell>
        <mxCell id="NQoOeGraaNY6f-ezMxtP-50" value="" style="endArrow=none;html=1;rounded=0;" edge="1" parent="NQoOeGraaNY6f-ezMxtP-49">
          <mxGeometry width="50" height="50" relative="1" as="geometry">
            <mxPoint x="64.61538461538461" y="16.846846846846848" as="sourcePoint" />
            <mxPoint x="86.15384615384616" y="39.81981981981982" as="targetPoint" />
          </mxGeometry>
        </mxCell>
        <mxCell id="NQoOeGraaNY6f-ezMxtP-51" value="" style="endArrow=none;html=1;rounded=0;" edge="1" parent="NQoOeGraaNY6f-ezMxtP-49">
          <mxGeometry width="50" height="50" relative="1" as="geometry">
            <mxPoint x="86.15384615384616" y="39.81981981981982" as="sourcePoint" />
            <mxPoint x="129.23076923076923" y="39.81981981981982" as="targetPoint" />
          </mxGeometry>
        </mxCell>
        <mxCell id="NQoOeGraaNY6f-ezMxtP-52" value="" style="endArrow=none;html=1;rounded=0;" edge="1" parent="NQoOeGraaNY6f-ezMxtP-49">
          <mxGeometry width="50" height="50" relative="1" as="geometry">
            <mxPoint x="86.15384615384616" y="124.05405405405405" as="sourcePoint" />
            <mxPoint x="57.43589743589744" y="85.76576576576578" as="targetPoint" />
          </mxGeometry>
        </mxCell>
        <mxCell id="NQoOeGraaNY6f-ezMxtP-53" value="" style="endArrow=none;html=1;rounded=0;" edge="1" parent="NQoOeGraaNY6f-ezMxtP-49">
          <mxGeometry width="50" height="50" relative="1" as="geometry">
            <mxPoint x="28.71794871794872" y="131.7117117117117" as="sourcePoint" />
            <mxPoint x="43.07692307692308" y="154.6846846846847" as="targetPoint" />
          </mxGeometry>
        </mxCell>
        <mxCell id="NQoOeGraaNY6f-ezMxtP-54" value="" style="endArrow=none;html=1;rounded=0;" edge="1" parent="NQoOeGraaNY6f-ezMxtP-49">
          <mxGeometry width="50" height="50" relative="1" as="geometry">
            <mxPoint x="14.35897435897436" y="154.6846846846847" as="sourcePoint" />
            <mxPoint x="86.15384615384616" y="39.81981981981982" as="targetPoint" />
          </mxGeometry>
        </mxCell>
        <mxCell id="NQoOeGraaNY6f-ezMxtP-55" value="" style="endArrow=none;html=1;rounded=0;" edge="1" parent="NQoOeGraaNY6f-ezMxtP-49">
          <mxGeometry width="50" height="50" relative="1" as="geometry">
            <mxPoint x="129.23076923076923" y="39.81981981981982" as="sourcePoint" />
            <mxPoint x="143.5897435897436" y="16.846846846846848" as="targetPoint" />
          </mxGeometry>
        </mxCell>
        <mxCell id="NQoOeGraaNY6f-ezMxtP-56" value="" style="endArrow=none;html=1;rounded=0;" edge="1" parent="NQoOeGraaNY6f-ezMxtP-49">
          <mxGeometry width="50" height="50" relative="1" as="geometry">
            <mxPoint x="114.87179487179488" y="62.7927927927928" as="sourcePoint" />
            <mxPoint x="134.97435897435898" y="47.47747747747748" as="targetPoint" />
          </mxGeometry>
        </mxCell>
        <mxCell id="NQoOeGraaNY6f-ezMxtP-57" value="A" style="text;html=1;align=center;verticalAlign=middle;resizable=0;points=[];autosize=1;strokeColor=none;fillColor=none;" vertex="1" parent="NQoOeGraaNY6f-ezMxtP-49">
          <mxGeometry x="50.256410256410255" width="30" height="30" as="geometry" />
        </mxCell>
        <mxCell id="NQoOeGraaNY6f-ezMxtP-58" value="H" style="text;html=1;align=center;verticalAlign=middle;resizable=0;points=[];autosize=1;strokeColor=none;fillColor=none;" vertex="1" parent="NQoOeGraaNY6f-ezMxtP-49">
          <mxGeometry x="78.97435897435898" y="116.3963963963964" width="30" height="30" as="geometry" />
        </mxCell>
        <mxCell id="NQoOeGraaNY6f-ezMxtP-59" value="I" style="text;html=1;align=center;verticalAlign=middle;resizable=0;points=[];autosize=1;strokeColor=none;fillColor=none;" vertex="1" parent="NQoOeGraaNY6f-ezMxtP-49">
          <mxGeometry x="35.8974358974359" y="147.02702702702703" width="30" height="30" as="geometry" />
        </mxCell>
        <mxCell id="NQoOeGraaNY6f-ezMxtP-60" value="J" style="text;html=1;align=center;verticalAlign=middle;resizable=0;points=[];autosize=1;strokeColor=none;fillColor=none;" vertex="1" parent="NQoOeGraaNY6f-ezMxtP-49">
          <mxGeometry y="147.02702702702703" width="30" height="30" as="geometry" />
        </mxCell>
        <mxCell id="NQoOeGraaNY6f-ezMxtP-61" value="C" style="text;html=1;align=center;verticalAlign=middle;resizable=0;points=[];autosize=1;strokeColor=none;fillColor=none;" vertex="1" parent="NQoOeGraaNY6f-ezMxtP-49">
          <mxGeometry x="100.51282051282051" y="55.13513513513514" width="30" height="30" as="geometry" />
        </mxCell>
        <mxCell id="NQoOeGraaNY6f-ezMxtP-62" value="" style="shape=curlyBracket;whiteSpace=wrap;html=1;rounded=1;flipH=1;labelPosition=right;verticalLabelPosition=middle;align=left;verticalAlign=middle;strokeWidth=3;" vertex="1" parent="NQoOeGraaNY6f-ezMxtP-36">
          <mxGeometry x="265.64" width="24.36" height="169.23" as="geometry" />
        </mxCell>
        <mxCell id="NQoOeGraaNY6f-ezMxtP-63" value="" style="shape=curlyBracket;whiteSpace=wrap;html=1;rounded=1;labelPosition=left;verticalLabelPosition=middle;align=right;verticalAlign=middle;strokeWidth=3;" vertex="1" parent="NQoOeGraaNY6f-ezMxtP-36">
          <mxGeometry x="-10" width="24.36" height="168.47" as="geometry" />
        </mxCell>
        <mxCell id="NQoOeGraaNY6f-ezMxtP-64" value="&lt;b&gt;&lt;font style=&quot;font-size: 86px;&quot;&gt;P&lt;/font&gt;&lt;/b&gt;" style="text;html=1;align=center;verticalAlign=middle;resizable=0;points=[];autosize=1;strokeColor=none;fillColor=none;" vertex="1" parent="NQoOeGraaNY6f-ezMxtP-35">
          <mxGeometry y="25" width="80" height="120" as="geometry" />
        </mxCell>
        <mxCell id="NQoOeGraaNY6f-ezMxtP-65" value="" style="shape=flexArrow;endArrow=classic;html=1;rounded=0;" edge="1" parent="1">
          <mxGeometry width="50" height="50" relative="1" as="geometry">
            <mxPoint x="400" y="418.01" as="sourcePoint" />
            <mxPoint x="460" y="418.01" as="targetPoint" />
          </mxGeometry>
        </mxCell>
        <mxCell id="NQoOeGraaNY6f-ezMxtP-66" value="&lt;font style=&quot;font-size: 50px;&quot;&gt;[n&lt;sub&gt;1&amp;nbsp;&lt;/sub&gt;: 0.1,&lt;br&gt;&amp;nbsp;n&lt;sub&gt;2&lt;/sub&gt; : 0.5,&lt;br&gt;&amp;nbsp;n&lt;sub&gt;3 &lt;/sub&gt;: 0.3,&lt;br&gt;...]&lt;/font&gt;" style="text;html=1;align=center;verticalAlign=middle;resizable=0;points=[];autosize=1;strokeColor=none;fillColor=none;" vertex="1" parent="1">
          <mxGeometry x="460" y="290" width="210" height="280" as="geometry" />
        </mxCell>
        <mxCell id="NQoOeGraaNY6f-ezMxtP-26" value="" style="shape=curlyBracket;whiteSpace=wrap;html=1;rounded=1;flipH=1;labelPosition=right;verticalLabelPosition=middle;align=left;verticalAlign=middle;strokeWidth=3;" vertex="1" parent="1">
          <mxGeometry x="490" y="69.24" width="24.36" height="169.23" as="geometry" />
        </mxCell>
      </root>
    </mxGraphModel>
  </diagram>
</mxfile>
